<svg width="113" height="20" viewBox="0 0 113 20" fill="none" xmlns="http://www.w3.org/2000/svg">
<path d="M6.74963 10.7241H8.69303V6.95402H6.74963V10.7241ZM15.2867 14.1034C15.3484 14.5709 15.3792 14.9655 15.3792 15.2874C15.3792 17.0038 14.7623 18.2184 13.5284 18.931C12.3022 19.6437 10.3704 20 7.73289 20C7.27789 20 6.88073 19.9962 6.54141 19.9885C6.20208 19.9808 5.80877 19.9579 5.36148 19.9195C4.91419 19.8889 4.52474 19.8429 4.19313 19.7816C3.86152 19.728 3.50292 19.6475 3.11732 19.5402C2.73944 19.4329 2.41168 19.3065 2.13405 19.1609C1.86414 19.0077 1.59422 18.8199 1.3243 18.5977C1.0621 18.3755 0.846164 18.1264 0.676502 17.8506C0.514552 17.567 0.383449 17.2337 0.283195 16.8506C0.18294 16.4674 0.132812 16.0498 0.132812 15.5977V8.70115C0.132812 8.14176 0.217643 7.63985 0.387305 7.1954C0.556967 6.74329 0.772901 6.37165 1.03511 6.08046C1.30502 5.78161 1.65206 5.5249 2.07621 5.31034C2.50808 5.09579 2.92452 4.93103 3.32554 4.81609C3.73427 4.70115 4.21627 4.61303 4.77152 4.55172C5.32678 4.48276 5.81263 4.44061 6.22907 4.42529C6.65323 4.40996 7.14679 4.4023 7.70976 4.4023C8.14934 4.4023 8.53493 4.40613 8.86654 4.41379C9.19816 4.42146 9.58375 4.44061 10.0233 4.47126C10.4706 4.50192 10.8562 4.54789 11.1801 4.6092C11.5117 4.66284 11.8703 4.74329 12.2559 4.85057C12.6415 4.95019 12.9731 5.0728 13.2508 5.21839C13.5284 5.36398 13.8022 5.54789 14.0721 5.77011C14.342 5.98467 14.5579 6.22988 14.7199 6.50575C14.8895 6.77395 15.0245 7.09579 15.1248 7.47126C15.2327 7.83908 15.2867 8.24521 15.2867 8.68965V12.7126H6.74963V17.3678H8.68146V14.1034H15.2867Z" fill="#F9EFF7"/>
<path d="M17.207 19.6552L17.2185 4.71264H22.8405L23.3148 6.4023C23.5693 5.79693 24.0397 5.31801 24.7261 4.96552C25.4124 4.61303 26.2106 4.42529 27.1206 4.4023V8.74713L23.8122 9.3908V19.6552H17.207Z" fill="#F9EFF7"/>
<path d="M28.5666 19.6552L28.5782 4.71264H34.2002L34.6744 6.4023C34.9289 5.79693 35.3994 5.31801 36.0857 4.96552C36.7721 4.61303 37.5703 4.42529 38.4803 4.4023V8.74713L35.1719 9.3908V19.6552H28.5666Z" fill="#F9EFF7"/>
<path d="M46.9595 20C46.4814 20 46.0688 19.9962 45.7217 19.9885C45.3747 19.9808 44.9737 19.9617 44.5187 19.931C44.0637 19.9004 43.6704 19.8544 43.3388 19.7931C43.0149 19.7395 42.6601 19.659 42.2745 19.5517C41.8966 19.4444 41.5727 19.318 41.3028 19.1724C41.0406 19.0268 40.7746 18.8429 40.5046 18.6207C40.2424 18.3985 40.0304 18.1494 39.8684 17.8736C39.7142 17.5977 39.5869 17.272 39.4867 16.8966C39.3941 16.5211 39.3478 16.1073 39.3478 15.6552V8.70115C39.3478 8.21839 39.4057 7.77778 39.5214 7.37931C39.6448 6.97318 39.8221 6.62835 40.0535 6.34483C40.2926 6.0613 40.5548 5.81226 40.8401 5.5977C41.1332 5.37548 41.4802 5.1954 41.8812 5.05747C42.2822 4.91954 42.6678 4.8046 43.038 4.71264C43.4159 4.62069 43.8477 4.55556 44.3336 4.51724C44.8272 4.47126 45.2667 4.44061 45.6523 4.42529C46.0379 4.40996 46.4775 4.4023 46.9711 4.4023C47.5726 4.4023 48.1009 4.41379 48.5559 4.43678C49.0186 4.45211 49.5237 4.49425 50.0713 4.56322C50.6188 4.63218 51.0892 4.72797 51.4825 4.85057C51.8836 4.97318 52.2807 5.14176 52.674 5.35632C53.075 5.57088 53.3989 5.82759 53.6457 6.12644C53.9002 6.42529 54.1046 6.7931 54.2588 7.22988C54.4131 7.66667 54.4902 8.16092 54.4902 8.71264V15.6667C54.4902 16.2567 54.4053 16.7816 54.2357 17.2414C54.0737 17.7011 53.8694 18.0843 53.6226 18.3908C53.3835 18.6897 53.048 18.9464 52.6162 19.1609C52.192 19.3678 51.7949 19.5249 51.4247 19.6322C51.0545 19.7395 50.5725 19.8199 49.9787 19.8736C49.3849 19.9349 48.8913 19.9693 48.498 19.977C48.1124 19.9923 47.5996 20 46.9595 20ZM45.9531 17.0345H47.8734V6.95402H45.9531V17.0345Z" fill="#F9EFF7"/>
<path d="M56.5146 19.6552L56.5261 4.71264H62.1481L62.6224 6.4023C62.8769 5.79693 63.3473 5.31801 64.0337 4.96552C64.72 4.61303 65.5182 4.42529 66.4282 4.4023V8.74713L63.1198 9.3908V19.6552H56.5146Z" fill="#F9EFF7"/>
<path d="M77.3945 9.34483V13.2069H67.7469V9.34483H77.3945ZM77.3945 15.7931V19.6552H67.7469V15.7931H77.3945Z" fill="#F9EFF7"/>
<path d="M89.7606 4.4023C91.3415 4.40996 92.5484 4.78544 93.3813 5.52874C94.2142 6.27203 94.6306 7.36398 94.6306 8.8046V19.6552H88.0254V6.95402H86.0936V19.6552H79.4883V4.71264H85.3879L85.8159 6C86.163 5.51724 86.6912 5.13027 87.4007 4.83908C88.1102 4.54789 88.8968 4.4023 89.7606 4.4023Z" fill="#F9EFF7"/>
<path d="M103.26 0.0114943V3.27586H96.655V0.0114943H103.26ZM103.26 19.6552H96.655V4.71264H103.26V19.6552Z" fill="#F9EFF7"/>
<path d="M112.133 19.6552H105.528V0H112.133V19.6552Z" fill="#F9EFF7"/>
</svg>
